{
    "asset" : {
        "generator" : "Khronos glTF Blender I/O v1.8.19",
        "version" : "2.0"
    },
    "scene" : 0,
    "scenes" : [
        {
            "name" : "Scene",
            "nodes" : [
                0,
                1
            ]
        }
    ],
    "nodes" : [
        {
            "mesh" : 0,
            "name" : "Cube.004",
            "scale" : [
                0.0010000000474974513,
                0.0010000000474974513,
                0.0010000000474974513
            ],
            "translation" : [
                -0.04183152690529823,
                0.01130008790642023,
                -0.35416239500045776
            ]
        },
        {
            "mesh" : 1,
            "name" : "Cube.005",
            "scale" : [
                0.0010000000474974513,
                0.0010000000474974513,
                0.0010000000474974513
            ],
            "translation" : [
                -0.04183152690529823,
                0.01130008790642023,
                -0.35416239500045776
            ]
        }
    ],
    "materials" : [
        {
            "doubleSided" : true,
            "name" : "Material.001",
            "pbrMetallicRoughness" : {
                "baseColorTexture" : {
                    "index" : 0
                },
                "metallicFactor" : 0,
                "roughnessFactor" : 0.5
            }
        }
    ],
    "meshes" : [
        {
            "name" : "Mesh",
            "primitives" : [
                {
                    "attributes" : {
                        "POSITION" : 0,
                        "NORMAL" : 1,
                        "TEXCOORD_0" : 2,
                        "TEXCOORD_1" : 3
                    },
                    "indices" : 4,
                    "material" : 0
                }
            ]
        },
        {
            "name" : "Mesh.002",
            "primitives" : [
                {
                    "attributes" : {
                        "POSITION" : 5,
                        "NORMAL" : 6,
                        "TEXCOORD_0" : 7,
                        "TEXCOORD_1" : 8
                    },
                    "indices" : 9,
                    "material" : 0
                }
            ]
        }
    ],
    "textures" : [
        {
            "sampler" : 0,
            "source" : 0
        }
    ],
    "images" : [
        {
            "bufferView" : 5,
            "mimeType" : "image/jpeg",
            "name" : "LPBake_Material"
        }
    ],
    "accessors" : [
        {
            "bufferView" : 0,
            "componentType" : 5126,
            "count" : 7965,
            "max" : [
                16143.9130859375,
                12635.2587890625,
                15253.3525390625
            ],
            "min" : [
                -14759.482421875,
                -395.50360107421875,
                -15785.201171875
            ],
            "type" : "VEC3"
        },
        {
            "bufferView" : 1,
            "componentType" : 5126,
            "count" : 7965,
            "type" : "VEC3"
        },
        {
            "bufferView" : 2,
            "componentType" : 5126,
            "count" : 7965,
            "type" : "VEC2"
        },
        {
            "bufferView" : 3,
            "componentType" : 5126,
            "count" : 7965,
            "type" : "VEC2"
        },
        {
            "bufferView" : 4,
            "componentType" : 5123,
            "count" : 44298,
            "type" : "SCALAR"
        },
        {
            "bufferView" : 6,
            "componentType" : 5126,
            "count" : 9498,
            "max" : [
                17522.443359375,
                1129.35693359375,
                17522.607421875
            ],
            "min" : [
                -17525.390625,
                -1508.456787109375,
                -17525.310546875
            ],
            "type" : "VEC3"
        },
        {
            "bufferView" : 7,
            "componentType" : 5126,
            "count" : 9498,
            "type" : "VEC3"
        },
        {
            "bufferView" : 8,
            "componentType" : 5126,
            "count" : 9498,
            "type" : "VEC2"
        },
        {
            "bufferView" : 9,
            "componentType" : 5126,
            "count" : 9498,
            "type" : "VEC2"
        },
        {
            "bufferView" : 10,
            "componentType" : 5123,
            "count" : 34392,
            "type" : "SCALAR"
        }
    ],
    "bufferViews" : [
        {
            "buffer" : 0,
            "byteLength" : 95580,
            "byteOffset" : 0
        },
        {
            "buffer" : 0,
            "byteLength" : 95580,
            "byteOffset" : 95580
        },
        {
            "buffer" : 0,
            "byteLength" : 63720,
            "byteOffset" : 191160
        },
        {
            "buffer" : 0,
            "byteLength" : 63720,
            "byteOffset" : 254880
        },
        {
            "buffer" : 0,
            "byteLength" : 88596,
            "byteOffset" : 318600
        },
        {
            "buffer" : 0,
            "byteLength" : 238783,
            "byteOffset" : 407196
        },
        {
            "buffer" : 0,
            "byteLength" : 113976,
            "byteOffset" : 645980
        },
        {
            "buffer" : 0,
            "byteLength" : 113976,
            "byteOffset" : 759956
        },
        {
            "buffer" : 0,
            "byteLength" : 75984,
            "byteOffset" : 873932
        },
        {
            "buffer" : 0,
            "byteLength" : 75984,
            "byteOffset" : 949916
        },
        {
            "buffer" : 0,
            "byteLength" : 68784,
            "byteOffset" : 1025900
        }
    ],
    "samplers" : [
        {
            "magFilter" : 9729,
            "minFilter" : 9987
        }
    ],
    "buffers" : [
        {
            "byteLength" : 1094684,
            "uri" : "data:application/octet-stream;base64,"
        }
    ]
}
